<?xml version="1.0" encoding="UTF-8"?>
<svg xmlns="http://www.w3.org/2000/svg" xmlns:xlink="http://www.w3.org/1999/xlink" width="37.5pt" height="37.499999pt" viewBox="0 0 37.5 37.499999" version="1.2">
<defs>
<clipPath id="clip1">
  <path d="M 0 0 L 37.007812 0 L 37.007812 37.007812 L 0 37.007812 Z M 0 0 "/>
</clipPath>
<clipPath id="clip2">
  <path d="M 1.144531 23.828125 L 36.355469 23.828125 L 36.355469 37.007812 L 1.144531 37.007812 Z M 1.144531 23.828125 "/>
</clipPath>
<clipPath id="clip3">
  <path d="M 13.066406 26.113281 L 24.394531 26.113281 L 24.394531 37.007812 L 13.066406 37.007812 Z M 13.066406 26.113281 "/>
</clipPath>
<clipPath id="clip4">
  <path d="M 15.648438 26.210938 L 21.613281 26.210938 L 21.613281 37.007812 L 15.648438 37.007812 Z M 15.648438 26.210938 "/>
</clipPath>
<clipPath id="clip5">
  <path d="M 9.191406 23.828125 L 18.828125 23.828125 L 18.828125 37.007812 L 9.191406 37.007812 Z M 9.191406 23.828125 "/>
</clipPath>
<clipPath id="clip6">
  <path d="M 18.730469 23.828125 L 28.367188 23.828125 L 28.367188 37.007812 L 18.730469 37.007812 Z M 18.730469 23.828125 "/>
</clipPath>
<clipPath id="clip7">
  <path d="M 7.402344 33.070312 L 8.792969 33.070312 L 8.792969 37.007812 L 7.402344 37.007812 Z M 7.402344 33.070312 "/>
</clipPath>
<clipPath id="clip8">
  <path d="M 28.765625 33.070312 L 30.15625 33.070312 L 30.15625 37.007812 L 28.765625 37.007812 Z M 28.765625 33.070312 "/>
</clipPath>
</defs>
<g id="surface1">
<g clip-path="url(#clip1)" clip-rule="nonzero">
<path style=" stroke:none;fill-rule:nonzero;fill:rgb(100%,100%,100%);fill-opacity:1;" d="M 0 0 L 37.5 0 L 37.5 45 L 0 45 Z M 0 0 "/>
<path style=" stroke:none;fill-rule:nonzero;fill:rgb(100%,100%,100%);fill-opacity:1;" d="M 0 0 L 37.5 0 L 37.5 37.5 L 0 37.5 Z M 0 0 "/>
</g>
<g clip-path="url(#clip2)" clip-rule="nonzero">
<path style=" stroke:none;fill-rule:evenodd;fill:rgb(41.958618%,50.19989%,60.778809%);fill-opacity:1;" d="M 16.886719 30.195312 L 13.101562 23.882812 C 8.21875 25.539062 1.851562 25.988281 1.394531 32.558594 C 1.339844 33.390625 1.203125 35.46875 1.144531 37.503906 L 36.355469 37.503906 C 36.292969 35.46875 36.160156 33.390625 36.101562 32.558594 C 35.644531 25.988281 29.277344 25.539062 24.398438 23.882812 L 20.613281 30.195312 L 16.886719 30.195312 "/>
</g>
<path style=" stroke:none;fill-rule:nonzero;fill:rgb(0%,0%,0%);fill-opacity:1;" d="M 25.820312 7.164062 L 25.6875 10.011719 C 26.8125 12.144531 25.664062 13.308594 25.070312 13.734375 C 24.792969 16.1875 23.386719 17.820312 21.613281 18.636719 C 20.746094 19.035156 19.792969 19.234375 18.84375 19.234375 C 17.894531 19.234375 16.941406 19.035156 16.070312 18.636719 C 14.296875 17.820312 12.894531 16.1875 12.613281 13.734375 C 12.023438 13.308594 10.871094 12.144531 11.996094 10.011719 L 11.863281 7.164062 L 11.886719 6.972656 C 12.40625 5.199219 13.605469 3.921875 15.101562 3.140625 C 16.308594 2.507812 17.707031 2.203125 19.085938 2.222656 C 20.472656 2.246094 21.847656 2.59375 23 3.269531 C 24.351562 4.066406 25.398438 5.308594 25.804688 7 L 25.820312 7.164062 "/>
<g clip-path="url(#clip3)" clip-rule="nonzero">
<path style=" stroke:none;fill-rule:evenodd;fill:rgb(100%,100%,100%);fill-opacity:1;" d="M 18.710938 26.199219 C 21.824219 26.199219 24.347656 28.292969 24.347656 30.117188 C 24.347656 31.941406 23.160156 36.839844 21.410156 37.503906 L 16.011719 37.503906 C 14.261719 36.839844 13.074219 31.941406 13.074219 30.117188 C 13.074219 28.292969 15.597656 26.199219 18.710938 26.199219 "/>
</g>
<g clip-path="url(#clip4)" clip-rule="nonzero">
<path style=" stroke:none;fill-rule:evenodd;fill:rgb(0%,73.728943%,83.139038%);fill-opacity:1;" d="M 18.785156 26.242188 L 16.660156 28.480469 L 17.292969 29.289062 L 15.660156 37.503906 L 20.125 37.503906 L 21.546875 37.441406 L 20.476562 29.292969 L 20.914062 28.480469 L 18.785156 26.242188 "/>
</g>
<path style=" stroke:none;fill-rule:evenodd;fill:rgb(82.749939%,66.668701%,58.81958%);fill-opacity:1;" d="M 23.503906 16.949219 L 23.742188 21.765625 L 18.632812 26.886719 L 13.832031 21.640625 L 14.054688 16.933594 L 23.503906 16.949219 "/>
<path style=" stroke:none;fill-rule:evenodd;fill:rgb(0.779724%,67.059326%,75.689697%);fill-opacity:1;" d="M 18.445312 26.242188 L 16.660156 28.480469 L 17.292969 29.289062 L 17.292969 29.292969 L 20.476562 29.292969 L 20.914062 28.480469 L 19.167969 26.242188 L 18.445312 26.242188 "/>
<path style=" stroke:none;fill-rule:evenodd;fill:rgb(90.979004%,90.979004%,90.979004%);fill-opacity:1;" d="M 11.695312 23.882812 L 13.847656 21.351562 L 18.785156 26.242188 L 15.007812 30.46875 L 11.695312 23.882812 "/>
<path style=" stroke:none;fill-rule:evenodd;fill:rgb(90.979004%,90.979004%,90.979004%);fill-opacity:1;" d="M 25.878906 23.882812 L 23.726562 21.351562 L 18.785156 26.242188 L 22.566406 30.46875 L 25.878906 23.882812 "/>
<path style=" stroke:none;fill-rule:evenodd;fill:rgb(82.749939%,66.668701%,58.81958%);fill-opacity:1;" d="M 25.824219 10.824219 C 25.824219 10.824219 28.246094 14.371094 25.09375 15.835938 L 25.824219 10.824219 "/>
<path style=" stroke:none;fill-rule:evenodd;fill:rgb(82.749939%,66.668701%,58.81958%);fill-opacity:1;" d="M 11.746094 10.824219 C 11.746094 10.824219 9.324219 14.371094 12.476562 15.835938 L 11.746094 10.824219 "/>
<path style=" stroke:none;fill-rule:evenodd;fill:rgb(100%,80.778503%,70.588684%);fill-opacity:1;" d="M 19.410156 4.078125 C 23.28125 4.078125 25.910156 7.113281 25.910156 12.292969 C 25.910156 15.664062 23.433594 22.585938 19.453125 22.585938 C 19.007812 22.585938 18.566406 22.585938 18.121094 22.585938 C 14.140625 22.585938 11.664062 15.664062 11.664062 12.292969 C 11.664062 7.113281 14.292969 4.078125 18.164062 4.078125 C 18.578125 4.078125 18.996094 4.078125 19.410156 4.078125 "/>
<path style=" stroke:none;fill-rule:evenodd;fill:rgb(0%,0%,0%);fill-opacity:1;" d="M 11.664062 12.289062 C 11.664062 12.289062 10.742188 5.96875 11.804688 5.410156 C 11.601562 4.269531 12.730469 3.246094 13.53125 2.941406 C 13.53125 2.941406 14.929688 1.292969 18.230469 0.957031 C 18.230469 0.957031 23.222656 0.00390625 26.148438 4.589844 C 26.621094 5.332031 26.539062 5.167969 26.003906 5.851562 C 26.378906 7.832031 26.34375 10.476562 25.910156 12.421875 C 25.910156 12.421875 25.136719 7.5 24.269531 6.859375 C 24.269531 6.859375 19.179688 9.597656 13.558594 6.382812 C 13.558594 6.382812 12.792969 6.945312 12.445312 8.328125 C 12.367188 8.640625 12.320312 8.945312 12.265625 9.308594 C 12.113281 10.355469 11.90625 11.242188 11.664062 12.289062 "/>
<g clip-path="url(#clip5)" clip-rule="nonzero">
<path style=" stroke:none;fill-rule:evenodd;fill:rgb(30.979919%,37.649536%,45.489502%);fill-opacity:1;" d="M 13.820312 37.503906 L 10.121094 30.476562 L 11.273438 28.496094 L 9.199219 27.847656 L 9.589844 24.796875 L 11.863281 23.882812 L 11.96875 24.089844 L 18.75 37.503906 L 13.820312 37.503906 "/>
</g>
<g clip-path="url(#clip6)" clip-rule="nonzero">
<path style=" stroke:none;fill-rule:evenodd;fill:rgb(30.979919%,37.649536%,45.489502%);fill-opacity:1;" d="M 23.679688 37.503906 L 27.375 30.476562 L 26.226562 28.496094 L 28.296875 27.847656 L 27.90625 24.796875 L 25.632812 23.882812 L 25.53125 24.089844 L 18.75 37.503906 L 23.679688 37.503906 "/>
</g>
<g clip-path="url(#clip7)" clip-rule="nonzero">
<path style=" stroke:none;fill-rule:evenodd;fill:rgb(30.979919%,37.649536%,45.489502%);fill-opacity:1;" d="M 7.933594 33.113281 L 8.726562 37.503906 L 7.433594 37.503906 Z M 7.933594 33.113281 "/>
</g>
<g clip-path="url(#clip8)" clip-rule="nonzero">
<path style=" stroke:none;fill-rule:evenodd;fill:rgb(30.979919%,37.649536%,45.489502%);fill-opacity:1;" d="M 29.5625 33.113281 L 28.769531 37.503906 L 30.066406 37.503906 Z M 29.5625 33.113281 "/>
</g>
</g>
</svg>
