<?xml version="1.0" encoding="UTF-8"?>
<svg xmlns="http://www.w3.org/2000/svg" xmlns:xlink="http://www.w3.org/1999/xlink" width="384pt" height="383.999986pt" viewBox="0 0 384 383.999986" version="1.2">
<defs>
<clipPath id="clip1">
  <path d="M 19.199219 80.78125 L 364.949219 80.78125 L 364.949219 303.390625 L 19.199219 303.390625 Z M 19.199219 80.78125 "/>
</clipPath>
</defs>
<g id="surface1">
<g clip-path="url(#clip1)" clip-rule="nonzero">
<path style=" stroke:none;fill-rule:nonzero;fill:rgb(0%,0%,0%);fill-opacity:1;" d="M 365.097656 88.207031 C 365.097656 87.898438 365.0625 87.59375 365.023438 87.285156 C 364.984375 87.09375 364.984375 86.863281 364.945312 86.671875 C 364.90625 86.441406 364.792969 86.210938 364.714844 85.980469 C 364.636719 85.75 364.5625 85.480469 364.484375 85.25 C 364.40625 85.058594 364.292969 84.902344 364.214844 84.75 C 364.0625 84.480469 363.90625 84.171875 363.753906 83.945312 C 363.714844 83.90625 363.714844 83.867188 363.714844 83.867188 C 363.601562 83.710938 363.484375 83.636719 363.371094 83.484375 C 363.179688 83.253906 362.984375 83.023438 362.792969 82.828125 C 362.601562 82.675781 362.410156 82.523438 362.253906 82.367188 C 362.0625 82.214844 361.871094 82.0625 361.640625 81.90625 C 361.449219 81.792969 361.21875 81.675781 360.988281 81.5625 C 360.757812 81.445312 360.527344 81.332031 360.296875 81.214844 C 360.066406 81.140625 359.835938 81.0625 359.605469 80.984375 C 359.375 80.910156 359.105469 80.832031 358.875 80.792969 C 358.605469 80.753906 358.335938 80.71875 358.066406 80.71875 C 357.796875 80.679688 357.605469 80.640625 357.414062 80.640625 L 26.890625 80.640625 C 26.699219 80.640625 26.503906 80.679688 26.3125 80.679688 C 26.042969 80.71875 25.773438 80.71875 25.503906 80.753906 C 25.238281 80.792969 25.007812 80.871094 24.777344 80.949219 C 24.546875 81.023438 24.3125 81.0625 24.082031 81.179688 C 23.851562 81.253906 23.621094 81.410156 23.390625 81.484375 C 23.160156 81.601562 22.929688 81.714844 22.738281 81.832031 C 22.546875 81.984375 22.355469 82.136719 22.164062 82.292969 C 21.96875 82.445312 21.777344 82.597656 21.585938 82.753906 C 21.394531 82.945312 21.203125 83.175781 21.007812 83.40625 C 20.894531 83.558594 20.738281 83.675781 20.664062 83.828125 C 20.625 83.867188 20.625 83.90625 20.585938 83.945312 C 20.433594 84.175781 20.277344 84.441406 20.125 84.710938 C 20.011719 84.902344 19.894531 85.058594 19.816406 85.25 C 19.703125 85.480469 19.664062 85.710938 19.585938 85.980469 C 19.511719 86.210938 19.433594 86.441406 19.355469 86.707031 C 19.316406 86.902344 19.316406 87.132812 19.28125 87.324219 C 19.28125 87.59375 19.203125 87.898438 19.203125 88.207031 C 19.203125 88.246094 19.203125 88.285156 19.203125 88.320312 L 19.203125 249.648438 C 19.203125 279.304688 43.339844 303.425781 73.007812 303.425781 L 311.292969 303.425781 C 340.964844 303.425781 365.097656 279.304688 365.097656 249.648438 L 365.097656 88.320312 C 365.097656 88.285156 365.097656 88.246094 365.097656 88.207031 Z M 333.621094 96.003906 L 192.152344 197.910156 L 50.679688 96.003906 Z M 311.292969 288.0625 L 73.007812 288.0625 C 51.832031 288.0625 34.574219 270.8125 34.574219 249.648438 L 34.574219 103.339844 L 187.65625 213.621094 C 189 214.578125 190.574219 215.078125 192.152344 215.078125 C 193.726562 215.078125 195.300781 214.578125 196.648438 213.621094 L 349.726562 103.339844 L 349.726562 249.648438 C 349.726562 270.8125 332.46875 288.0625 311.292969 288.0625 Z M 311.292969 288.0625 "/>
</g>
</g>
</svg>
