<?xml version="1.0" encoding="UTF-8"?><svg xmlns="http://www.w3.org/2000/svg" xmlns:xlink="http://www.w3.org/1999/xlink" width="375" zoomAndPan="magnify" viewBox="0 0 375 374.999991" height="374.999991" preserveAspectRatio="xMidYMid meet" version="1.0"><path fill="rgb(30.198669%, 46.269226%, 98.429871%)" d="M 187.5 0 C 84.105469 0 0 84.113281 0 187.5 C 0 290.886719 84.105469 375 187.5 375 C 290.882812 375 375 290.886719 375 187.5 C 375 84.113281 290.882812 0 187.5 0 Z M 187.5 347.824219 C 99.09375 347.824219 27.171875 275.90625 27.171875 187.5 C 27.171875 99.09375 99.09375 27.175781 187.5 27.175781 C 275.90625 27.175781 347.816406 99.09375 347.816406 187.5 C 347.816406 275.90625 275.90625 347.824219 187.5 347.824219 Z M 187.5 347.824219 " fill-opacity="1" fill-rule="nonzero"/><path fill="rgb(30.198669%, 46.269226%, 98.429871%)" d="M 271.546875 173.914062 L 203.058594 173.914062 L 203.058594 103.453125 C 203.058594 95.949219 196.980469 89.875 189.480469 89.875 C 181.96875 89.875 175.894531 95.953125 175.894531 103.453125 L 175.894531 173.914062 L 107.40625 173.914062 C 99.902344 173.914062 93.816406 180 93.816406 187.5 C 93.816406 195 99.90625 201.085938 107.40625 201.085938 L 175.886719 201.085938 L 175.886719 267.59375 C 175.886719 275.097656 181.96875 281.175781 189.472656 281.175781 C 196.980469 281.175781 203.050781 275.09375 203.050781 267.59375 L 203.050781 201.085938 L 271.539062 201.085938 C 279.046875 201.085938 285.117188 195 285.117188 187.5 C 285.117188 180 279.050781 173.914062 271.546875 173.914062 Z M 271.546875 173.914062 " fill-opacity="1" fill-rule="nonzero"/></svg>