<?xml version="1.0" encoding="utf-8"?>
<!-- Generator: Adobe Illustrator 24.0.1, SVG Export Plug-In . SVG Version: 6.00 Build 0)  -->
<svg version="1.1" id="Layer_1" xmlns="http://www.w3.org/2000/svg" xmlns:xlink="http://www.w3.org/1999/xlink" x="0px" y="0px"
	 viewBox="0 0 512 512" style="enable-background:new 0 0 512 512;" xml:space="preserve">
<style type="text/css">
	.st0{display:none;}
	.st1{display:inline;fill:#FFFFFF;}
	.st2{display:inline;fill:#28292C;}
	.st3{stroke:#000000;stroke-width:8;stroke-miterlimit:10;}
	.st4{fill:none;stroke:#FFFFFF;stroke-width:8;stroke-miterlimit:10;}
	.st5{fill:#FFFFFF;}
</style>
<g class="st0">
	<ellipse class="st1" cx="394.54" cy="177.37" rx="67.82" ry="72.15"/>
	<path class="st2" d="M394.54,108.72c35.46,0,64.32,30.8,64.32,68.65s-28.85,68.65-64.32,68.65s-64.32-30.8-64.32-68.65
		S359.08,108.72,394.54,108.72 M394.54,101.72c-39.39,0-71.32,33.87-71.32,75.65c0,41.78,31.93,75.65,71.32,75.65
		s71.32-33.87,71.32-75.65C465.86,135.59,433.93,101.72,394.54,101.72L394.54,101.72z"/>
</g>
<path class="st3" d="M486.93,240.99c11.89,8.68,3.95,46.68-9.73,72.21c-3.21,6-20.36,36.75-61.59,55.02
	c-49.63,22-64.28-5.05-116.7,10.32c-49.41,14.48-47.28,41.7-110.22,61.9c-36.63,11.75-63.1,10.79-71.32,10.32
	c-28.94-1.68-64.11-3.73-87.65-33.41c-17.92-22.59-27.58-58.87-16.09-86.95c10.48-25.61,30.57-25.02,63.21-56.74
	c17.15-16.67,19.37-24.38,48.63-68.78c46.9-71.17,70.98-107.2,102.11-128.95c36.05-25.19,67.19-29.97,84.28-30.95
	c23.57-1.35,61.5,2.32,64.83,17.19c4.19,18.69-52.11,28.8-71.32,79.09c-12.05,31.55-7.9,74.7,16.21,103.16
	c29.52,34.86,75.24,31.48,81.04,30.95C450.61,271.02,473.42,231.13,486.93,240.99z"/>
<path class="st4" d="M339.43,67.33c-14.32,2.88-44.61,11.26-58.35,37.83c-6.78,13.11-6.56,24.9-6.48,41.27
	c0.51,111.63-7.27,126.34,9.73,151.31c11.78,17.31,26.6,26.53,35.66,30.95c34.78,16.98,68.95,4.44,81.04,0
	c31.85-11.69,31.75-38.42,61.59-48.14c18.08-5.89,34.88-2.93,45.38,0"/>
<ellipse class="st5" cx="339.43" cy="67.51" rx="9.73" ry="10.18"/>
</svg>
