<?xml version="1.0" encoding="utf-8"?>
<!-- Generator: Adobe Illustrator 24.0.1, SVG Export Plug-In . SVG Version: 6.00 Build 0)  -->
<svg version="1.1" id="Layer_1" xmlns="http://www.w3.org/2000/svg" xmlns:xlink="http://www.w3.org/1999/xlink" x="0px" y="0px"
	 viewBox="0 0 512 512" style="enable-background:new 0 0 512 512;" xml:space="preserve">
<style type="text/css">
	.st0{fill:#E90006;}
	.st1{fill:#4D76FB;stroke:#4D76FB;stroke-width:8;stroke-miterlimit:10;}
	.st2{fill:none;stroke:#FFFFFF;stroke-width:8;stroke-miterlimit:10;}
	.st3{fill:#FFFFFF;}
</style>
<g>
	<ellipse class="st0" cx="392.54" cy="185.37" rx="71.32" ry="75.65"/>
</g>
<path class="st1" d="M484.93,248.99c11.89,8.68,3.95,46.68-9.73,72.21c-3.21,6-20.36,36.75-61.59,55.02
	c-49.63,22-64.28-5.05-116.7,10.32c-49.41,14.48-47.28,41.7-110.22,61.9c-36.63,11.75-63.1,10.79-71.32,10.32
	c-28.94-1.68-64.11-3.73-87.65-33.41C9.82,402.75,0.15,366.47,11.64,338.4c10.48-25.61,30.57-25.02,63.21-56.74
	c17.15-16.67,19.37-24.38,48.63-68.78c46.9-71.17,70.98-107.2,102.11-128.95c36.05-25.19,67.19-29.97,84.28-30.95
	c23.57-1.35,61.5,2.32,64.83,17.19c4.19,18.69-52.11,28.8-71.32,79.09c-12.05,31.55-7.9,74.7,16.21,103.16
	c29.52,34.86,75.24,31.48,81.04,30.95C448.61,279.02,471.42,239.13,484.93,248.99z"/>
<path class="st2" d="M337.43,75.33c-14.32,2.88-44.61,11.26-58.35,37.83c-6.78,13.11-6.56,24.9-6.48,41.27
	c0.51,111.63-7.27,126.34,9.73,151.31c11.78,17.31,26.6,26.53,35.66,30.95c34.78,16.98,68.95,4.44,81.04,0
	c31.85-11.69,31.75-38.42,61.59-48.14c18.08-5.89,34.88-2.93,45.38,0"/>
<ellipse class="st3" cx="337.43" cy="75.51" rx="9.73" ry="10.18"/>
</svg>
